# xmcd
#
# Track frame offsets: 
#        150
#        13256
#        31014
#        42808
#        56931
#        74817
#        87643
#        104425
#        117783
#        129332
#        142130
#        158761
#        174865
#        194021
#
# Disc length: 2859 seconds
#
# Revision: 0
# Processed by: cddbd v1.5.2PL0 Copyright (c) Steve Scherf et al.
# Submitted via: ExactAudioCopyFreeDBPlugin 1.0
#
DISCID=cb0b290e
DTITLE=Guido Henn - Feuer und Eis
DYEAR=2013
DGENRE=Polka
TTITLE0=Feuer und Eis
TTITLE1=Am Puls der Zeit
TTITLE2=Hoch drin im Böhmerwald
TTITLE3=Egerländer Trumpf
TTITLE4=Ein Walzer für Dich
TTITLE5=Wunderbar
TTITLE6=Sunnyboy
TTITLE7=17 und 4
TTITLE8=Polka Romantica
TTITLE9=Die guten alten Zeiten
TTITLE10=Der Tenorhorn-Gott
TTITLE11=Lust auf Polka
TTITLE12=Es war einmal
TTITLE13=Erinnerungen
EXTD=
EXTT0=
EXTT1=
EXTT2=
EXTT3=
EXTT4=
EXTT5=
EXTT6=
EXTT7=
EXTT8=
EXTT9=
EXTT10=
EXTT11=
EXTT12=
EXTT13=
PLAYORDER=
